<svg width="133" height="30" viewBox="0 0 133 30" fill="none" xmlns="http://www.w3.org/2000/svg">
<path d="M0 16.4155H2.73477L6.36517 26.4218L10.1118 16.4155H12.6756L7.28815 29.6531H5.23024L0 16.4155Z" fill="white"/>
<path d="M14.0984 16.4155H22.9317V18.5471H16.4776V21.7988H22.5967V23.9304H16.4776V27.5215H23.2735V29.6531H14.0984V16.4155Z" fill="white"/>
<path d="M37.7141 19.26C37.2081 18.5472 36.3057 18.2146 35.3827 18.2146C34.2956 18.2146 33.2017 18.7033 33.2017 19.9117C33.2017 22.566 39.5327 21.0522 39.5327 25.7634C39.5327 28.6078 37.2697 29.9926 34.658 29.9926C32.9966 29.9926 31.3831 29.4903 30.2892 28.1937L32.0668 26.4762C32.6548 27.3519 33.6529 27.861 34.7058 27.861C35.7929 27.861 37.0372 27.2636 37.0372 26.0485C37.0372 23.1498 30.7131 24.813 30.7131 20.0814C30.7131 17.3524 33.1607 16.0762 35.6288 16.0762C37.0235 16.0762 38.4114 16.4699 39.4507 17.4407L37.7141 19.26Z" fill="white"/>
<path d="M48.3186 16.083C52.4823 16.0083 55.4154 18.7781 55.4154 23.0209C55.4154 27.1551 52.4755 29.9248 48.3186 29.9995C44.2165 29.9995 41.2766 27.2298 41.2766 23.1023C41.2766 18.8459 44.2165 16.083 48.3186 16.083ZM48.3391 27.8611C51.1081 27.8611 52.9335 25.7634 52.9335 22.9394C52.9335 20.3055 51.1081 18.2146 48.3391 18.2146C45.5907 18.2146 43.7653 20.3055 43.7653 22.9394C43.7653 25.7634 45.5907 27.8611 48.3391 27.8611Z" fill="white"/>
<path d="M74.1775 24.7929C74.1775 27.9905 71.8597 29.9932 68.8102 29.9932C65.7608 29.9932 63.443 27.9905 63.443 24.7929V7.81396L65.8155 11.0658V24.7115C65.8155 26.0217 66.5266 27.7393 68.8102 27.7393C71.087 27.7393 71.805 26.0149 71.805 24.7115V16.4155H74.1775V24.7929Z" fill="white"/>
<path d="M79.8248 18.5471H75.7432V16.4155H86.2857V18.5471H82.1972V29.6531H79.8248V18.5471Z" fill="white"/>
<path d="M90.2176 16.4155H87.8521V29.6531H90.2176V16.4155Z" fill="white"/>
<path d="M99.4683 16.083C103.632 16.0083 106.565 18.7781 106.565 23.0209C106.565 27.1551 103.632 29.9248 99.4683 29.9995C95.3661 29.9995 92.4263 27.2298 92.4263 23.1023C92.4263 18.8459 95.3661 16.083 99.4683 16.083ZM99.4888 27.8611C102.258 27.8611 104.083 25.7634 104.083 22.9394C104.083 20.3055 102.258 18.2146 99.4888 18.2146C96.7404 18.2146 94.9149 20.3055 94.9149 22.9394C94.9081 25.7634 96.7404 27.8611 99.4888 27.8611Z" fill="white"/>
<path d="M108.829 16.4155H111.974L118.435 26.2521L118.469 26.286H118.435L118.469 26.2521V16.4155H120.841V29.6531H117.826L111.242 19.4975H111.201V29.6531H108.829V16.4155Z" fill="white"/>
<path d="M130.352 19.26C129.839 18.5472 128.937 18.2146 128.014 18.2146C126.92 18.2146 125.826 18.7033 125.826 19.9117C125.826 22.566 132.15 21.0522 132.15 25.7634C132.15 28.6078 129.894 29.9926 127.276 29.9926C125.621 29.9926 124.001 29.4903 122.907 28.1937L124.698 26.4762C125.279 27.3519 126.277 27.861 127.337 27.861C128.431 27.861 129.675 27.2636 129.675 26.0485C129.675 23.1498 123.344 24.813 123.344 20.0814C123.344 17.3524 125.792 16.0762 128.26 16.0762C129.655 16.0762 131.05 16.4699 132.082 17.4407L130.352 19.26Z" fill="white"/>
<path fill-rule="evenodd" clip-rule="evenodd" d="M60.3867 0L60.3935 29.6266H57.9526L57.9458 0.0407332L60.3867 0Z" fill="white"/>
<path fill-rule="evenodd" clip-rule="evenodd" d="M55.0194 3.17041L55.0262 16.5234L52.5854 14.5955V6.17093L55.0194 3.17041Z" fill="#F89728"/>
</svg>
