<svg width="133" height="30" viewBox="0 0 133 30" fill="none" xmlns="http://www.w3.org/2000/svg">
<path d="M0 16.4155H2.73477L6.36517 26.4217L10.1118 16.4155H12.6756L7.28815 29.6531H5.23024L0 16.4155Z" fill="#1A1A1A"/>
<path d="M14.0986 16.4155H22.9319V18.5471H16.4779V21.7988H22.5969V23.9304H16.4779V27.5215H23.2738V29.6531H14.0986V16.4155Z" fill="#1A1A1A"/>
<path d="M37.714 19.2599C37.208 18.5471 36.3056 18.2144 35.3826 18.2144C34.2955 18.2144 33.2016 18.7032 33.2016 19.9116C33.2016 22.5659 39.5326 21.052 39.5326 25.7633C39.5326 28.6076 37.2696 29.9925 34.6579 29.9925C32.9965 29.9925 31.383 29.4902 30.2891 28.1935L32.0667 26.4761C32.6546 27.3518 33.6528 27.8609 34.7057 27.8609C35.7928 27.8609 37.0371 27.2635 37.0371 26.0484C37.0371 23.1497 30.713 24.8129 30.713 20.0813C30.713 17.3523 33.1606 16.076 35.6287 16.076C37.0234 16.076 38.4113 16.4698 39.4505 17.4405L37.714 19.2599Z" fill="#1A1A1A"/>
<path d="M48.3184 16.0828C52.4821 16.0081 55.4151 18.7778 55.4151 23.0206C55.4151 27.1548 52.4752 29.9246 48.3184 29.9992C44.2162 29.9992 41.2764 27.2295 41.2764 23.1021C41.2764 18.8457 44.2162 16.0828 48.3184 16.0828ZM48.3389 27.8608C51.1078 27.8608 52.9333 25.7632 52.9333 22.9392C52.9333 20.3052 51.1078 18.2144 48.3389 18.2144C45.5905 18.2144 43.765 20.3052 43.765 22.9392C43.765 25.7632 45.5905 27.8608 48.3389 27.8608Z" fill="#1A1A1A"/>
<path d="M74.1774 24.793C74.1774 27.9905 71.8595 29.9933 68.8101 29.9933C65.7607 29.9933 63.4429 27.9905 63.4429 24.793V7.81403L65.8154 11.0659V24.7115C65.8154 26.0218 66.5265 27.7393 68.8101 27.7393C71.0869 27.7393 71.8048 26.015 71.8048 24.7115V16.4155H74.1774V24.793Z" fill="#1A1A1A"/>
<path d="M79.8248 18.5471H75.7432V16.4155H86.2857V18.5471H82.1972V29.6531H79.8248V18.5471Z" fill="#1A1A1A"/>
<path d="M90.2176 16.4155H87.8521V29.6531H90.2176V16.4155Z" fill="#1A1A1A"/>
<path d="M99.4683 16.0828C103.632 16.0081 106.565 18.7778 106.565 23.0206C106.565 27.1548 103.632 29.9246 99.4683 29.9992C95.3661 29.9992 92.4263 27.2295 92.4263 23.1021C92.4263 18.8457 95.3661 16.0828 99.4683 16.0828ZM99.4888 27.8608C102.258 27.8608 104.083 25.7632 104.083 22.9392C104.083 20.3052 102.258 18.2144 99.4888 18.2144C96.7404 18.2144 94.9149 20.3052 94.9149 22.9392C94.9081 25.7632 96.7404 27.8608 99.4888 27.8608Z" fill="#1A1A1A"/>
<path d="M108.829 16.4155H111.974L118.434 26.252L118.469 26.286H118.434L118.469 26.252V16.4155H120.841V29.6531H117.826L111.242 19.4975H111.201V29.6531H108.829V16.4155Z" fill="#1A1A1A"/>
<path d="M130.352 19.2599C129.839 18.5471 128.937 18.2144 128.014 18.2144C126.92 18.2144 125.826 18.7032 125.826 19.9116C125.826 22.5659 132.15 21.052 132.15 25.7633C132.15 28.6076 129.894 29.9925 127.276 29.9925C125.621 29.9925 124.001 29.4902 122.907 28.1935L124.698 26.4761C125.279 27.3518 126.277 27.8609 127.337 27.8609C128.431 27.8609 129.675 27.2635 129.675 26.0484C129.675 23.1497 123.344 24.8129 123.344 20.0813C123.344 17.3523 125.792 16.076 128.26 16.076C129.655 16.076 131.05 16.4698 132.082 17.4405L130.352 19.2599Z" fill="#1A1A1A"/>
<path fill-rule="evenodd" clip-rule="evenodd" d="M60.3867 0L60.3935 29.6266H57.9526L57.9458 0.0407332L60.3867 0Z" fill="#1A1A1A"/>
<path fill-rule="evenodd" clip-rule="evenodd" d="M55.0194 3.17035L55.0262 16.5234L52.5854 14.5954V6.17087L55.0194 3.17035Z" fill="#F89728"/>
<path d="M0 16.4155H2.73477L6.36517 26.4217L10.1118 16.4155H12.6756L7.28815 29.6531H5.23024L0 16.4155Z" fill="#1A1A1A"/>
<path d="M14.0986 16.4155H22.9319V18.5471H16.4779V21.7988H22.5969V23.9304H16.4779V27.5215H23.2738V29.6531H14.0986V16.4155Z" fill="#1A1A1A"/>
<path d="M37.714 19.2599C37.208 18.5471 36.3056 18.2144 35.3826 18.2144C34.2955 18.2144 33.2016 18.7032 33.2016 19.9116C33.2016 22.5659 39.5326 21.052 39.5326 25.7633C39.5326 28.6076 37.2696 29.9925 34.6579 29.9925C32.9965 29.9925 31.383 29.4902 30.2891 28.1935L32.0667 26.4761C32.6546 27.3518 33.6528 27.8609 34.7057 27.8609C35.7928 27.8609 37.0371 27.2635 37.0371 26.0484C37.0371 23.1497 30.713 24.8129 30.713 20.0813C30.713 17.3523 33.1606 16.076 35.6287 16.076C37.0234 16.076 38.4113 16.4698 39.4505 17.4405L37.714 19.2599Z" fill="#1A1A1A"/>
<path d="M48.3184 16.0828C52.4821 16.0081 55.4151 18.7778 55.4151 23.0206C55.4151 27.1548 52.4752 29.9246 48.3184 29.9992C44.2162 29.9992 41.2764 27.2295 41.2764 23.1021C41.2764 18.8457 44.2162 16.0828 48.3184 16.0828ZM48.3389 27.8608C51.1078 27.8608 52.9333 25.7632 52.9333 22.9392C52.9333 20.3052 51.1078 18.2144 48.3389 18.2144C45.5905 18.2144 43.765 20.3052 43.765 22.9392C43.765 25.7632 45.5905 27.8608 48.3389 27.8608Z" fill="#1A1A1A"/>
<path d="M74.1774 24.793C74.1774 27.9905 71.8595 29.9933 68.8101 29.9933C65.7607 29.9933 63.4429 27.9905 63.4429 24.793V7.81403L65.8154 11.0659V24.7115C65.8154 26.0218 66.5265 27.7393 68.8101 27.7393C71.0869 27.7393 71.8048 26.015 71.8048 24.7115V16.4155H74.1774V24.793Z" fill="#1A1A1A"/>
<path d="M79.8248 18.5471H75.7432V16.4155H86.2857V18.5471H82.1972V29.6531H79.8248V18.5471Z" fill="#1A1A1A"/>
<path d="M90.2176 16.4155H87.8521V29.6531H90.2176V16.4155Z" fill="#1A1A1A"/>
<path d="M99.4683 16.0828C103.632 16.0081 106.565 18.7778 106.565 23.0206C106.565 27.1548 103.632 29.9246 99.4683 29.9992C95.3661 29.9992 92.4263 27.2295 92.4263 23.1021C92.4263 18.8457 95.3661 16.0828 99.4683 16.0828ZM99.4888 27.8608C102.258 27.8608 104.083 25.7632 104.083 22.9392C104.083 20.3052 102.258 18.2144 99.4888 18.2144C96.7404 18.2144 94.9149 20.3052 94.9149 22.9392C94.9081 25.7632 96.7404 27.8608 99.4888 27.8608Z" fill="#1A1A1A"/>
<path d="M108.829 16.4155H111.974L118.434 26.252L118.469 26.286H118.434L118.469 26.252V16.4155H120.841V29.6531H117.826L111.242 19.4975H111.201V29.6531H108.829V16.4155Z" fill="#1A1A1A"/>
<path d="M130.352 19.2599C129.839 18.5471 128.937 18.2144 128.014 18.2144C126.92 18.2144 125.826 18.7032 125.826 19.9116C125.826 22.5659 132.15 21.052 132.15 25.7633C132.15 28.6076 129.894 29.9925 127.276 29.9925C125.621 29.9925 124.001 29.4902 122.907 28.1935L124.698 26.4761C125.279 27.3518 126.277 27.8609 127.337 27.8609C128.431 27.8609 129.675 27.2635 129.675 26.0484C129.675 23.1497 123.344 24.8129 123.344 20.0813C123.344 17.3523 125.792 16.076 128.26 16.076C129.655 16.076 131.05 16.4698 132.082 17.4405L130.352 19.2599Z" fill="#1A1A1A"/>
<path fill-rule="evenodd" clip-rule="evenodd" d="M60.3867 0L60.3935 29.6266H57.9526L57.9458 0.0407332L60.3867 0Z" fill="#1A1A1A"/>
<path fill-rule="evenodd" clip-rule="evenodd" d="M55.0194 3.17035L55.0262 16.5234L52.5854 14.5954V6.17087L55.0194 3.17035Z" fill="#F89728"/>
</svg>
